Coordinates
version=1
nRows=16
nColumns=22
inDegrees=yes

Units are S.I. units (second, meters, Newtons, ...)
If the header above contains a line with 'inDegrees', this indicates whether rotational values are in degrees (yes) or radians (no).

endheader
time	pelvis_tilt	pelvis_list	pelvis_rotation	pelvis_tx	pelvis_ty	pelvis_tz	hip_flexion_r	hip_adduction_r	hip_rotation_r	knee_angle_r	ankle_angle_r	subtalar_angle_r	hip_flexion_l	hip_adduction_l	hip_rotation_l	knee_angle_l	ankle_angle_l	subtalar_angle_l	lumbar_extension	lumbar_bending	lumbar_rotation
      2.76000000	     -2.59566533	      0.66845379	     -0.63344478	     -0.92863265	      0.98317560	     -0.05698668	     29.34485911	     -2.30288420	     -9.21396276	     -7.77136694	      6.03807920	     11.89904417	     -7.47034303	      3.62834147	     -9.77953370	    -10.89105966	     19.46369675	     -1.53477619	     -7.69462554	     -3.03332429	     -6.51643447
      2.77000000	     -2.61449018	      0.64663573	     -0.44199584	     -0.91882529	      0.98147839	     -0.05700897	     29.48065881	     -2.31711231	     -9.01120472	     -8.17389241	      5.99468285	     11.78717860	     -7.86453052	      3.54568091	     -9.59057214	    -11.30228103	     19.73271039	     -1.23194234	     -7.63612042	     -2.88796667	     -6.57424134
      2.78000000	     -2.63786039	      0.63389556	     -0.22637587	     -0.90882009	      0.97988657	     -0.05703094	     29.63014339	     -2.36830310	     -8.86287253	     -8.82726238	      5.89927759	     11.59697386	     -8.27338854	      3.46316360	     -9.34608623	    -11.69562922	     19.89898256	     -0.91389776	     -7.56565601	     -2.74474980	     -6.66316566
      2.79000000	     -2.66849093	      0.61965147	      0.01983202	     -0.89862620	      0.97843736	     -0.05702422	     29.78086069	     -2.44229492	     -8.76453094	     -9.67709107	      5.71777754	     11.32005380	     -8.68314798	      3.36164425	     -9.04322031	    -12.08803395	     19.96116765	     -0.53135520	     -7.48254553	     -2.59888250	     -6.78843174
      2.80000000	     -2.70775633	      0.59216058	      0.29268649	     -0.88825296	      0.97716952	     -0.05697272	     29.92422812	     -2.52110706	     -8.70992908	    -10.66880847	      5.41530556	     10.95414755	     -9.08364640	      3.22558985	     -8.68536302	    -12.49300226	     19.92543360	     -0.07327123	     -7.38725952	     -2.43744345	     -6.94167561
      2.81000000	     -2.75598805	      0.53987665	      0.58767389	     -0.87771755	      0.97613069	     -0.05685507	     30.05551493	     -2.58841097	     -8.71384501	    -11.74883887	      4.94732397	     10.52490304	     -9.46713280	      3.04151005	     -8.27693693	    -12.91636351	     19.77720205	      0.44939047	     -7.27967659	     -2.24916996	     -7.12372764
      2.82000000	     -2.81981104	      0.44167564	      0.89983896	     -0.86704899	      0.97536408	     -0.05663893	     30.16754369	     -2.61512292	     -8.76541224	    -12.84346738	      4.29379070	     10.04199500	     -9.80752160	      2.78507272	     -7.80244515	    -13.38986592	     19.49518573	      1.04177740	     -7.15643910	     -2.01405019	     -7.31204620
      2.83000000	     -2.89496365	      0.28517390	      1.19744621	     -0.85623782	      0.97489978	     -0.05626440	     30.26251792	     -2.57062770	     -8.84498657	    -13.92362809	      3.45667010	      9.49528751	    -10.10628787	      2.44837574	     -7.32115838	    -13.91573174	     19.08554965	      1.70974555	     -7.01772545	     -1.72439946	     -7.47238195
      2.84000000	     -2.98276668	      0.06641023	      1.48203905	     -0.84529883	      0.97475000	     -0.05574129	     30.34262916	     -2.45355802	     -8.96169501	    -14.96481381	      2.50746056	      8.92055679	    -10.35380277	      2.03066787	     -6.80712193	    -14.50356342	     18.56120069	      2.42543997	     -6.86267170	     -1.37353738	     -7.60850621
      2.85000000	     -3.07541845	     -0.20559440	      1.72771169	     -0.83421389	      0.97492545	     -0.05504740	     30.40226474	     -2.25774685	     -9.06055728	    -15.96484305	      1.51034931	      8.31602311	    -10.55501430	      1.54889171	     -6.31390048	    -15.15651013	     17.89857013	      3.19524415	     -6.69515345	     -0.97083696	     -7.69820702
      2.86000000	     -3.16554720	     -0.51414424	      1.92154772	     -0.82296901	      0.97541389	     -0.05417624	     30.43449866	     -1.99184147	     -9.10972197	    -16.93280480	      0.55920590	      7.69788775	    -10.71503127	      1.02622031	     -5.85922817	    -15.87832212	     17.08491475	      4.01178039	     -6.51949806	     -0.53652858	     -7.73323072
      2.87000000	     -3.25466640	     -0.85136781	      2.07037857	     -0.81154965	      0.97617298	     -0.05316343	     30.43592779	     -1.66938093	     -9.11973915	    -17.87521933	     -0.28647001	      7.12891259	    -10.82581503	      0.47496836	     -5.43373985	    -16.68035760	     16.14266784	      4.82838977	     -6.32762754	     -0.07634313	     -7.72929673
      2.88000000	     -3.33265054	     -1.19384094	      2.16284851	     -0.79995839	      0.97718069	     -0.05201105	     30.38985142	     -1.30352314	     -9.05772927	    -18.78944624	     -0.97397803	      6.58244851	    -10.89374502	     -0.07620331	     -5.06602114	    -17.56661833	     15.05434201	      5.65846269	     -6.12813514	      0.38381000	     -7.68236988
      2.89000000	     -3.39781112	     -1.52924290	      2.20327300	     -0.78820459	      0.97839742	     -0.05074733	     30.28780380	     -0.90908013	     -8.94046594	    -19.66709155	     -1.47696060	      6.05767688	    -10.91281872	     -0.61307451	     -4.76746129	    -18.54655498	     13.82290183	      6.47546893	     -5.91957360	      0.83226351	     -7.60383906
      2.90000000	     -3.45092478	     -1.84850438	      2.20333267	     -0.77632213	      0.97978766	     -0.04939866	     30.11727094	     -0.49767109	     -8.77417945	    -20.47993967	     -1.79536563	      5.53929330	    -10.86604175	     -1.12927054	     -4.54929545	    -19.64013688	     12.45064974	      7.25208636	     -5.69962771	      1.25955493	     -7.50865289
      2.91000000	     -3.48910531	     -2.13944635	      2.16704535	     -0.76433293	      0.98131930	     -0.04797127	     29.87062657	     -0.08185582	     -8.57646634	    -21.21744807	     -1.91295730	      4.98038450	    -10.75105105	     -1.61343424	     -4.41675945	    -20.84990762	     10.93429861	      7.98888513	     -5.47193293	      1.65022032	     -7.40026812
